<svg width="300" height="300"><g transform="translate(150,150)"><path title="setup-machine" d="M3.67394039744206e-15,-60A60,60,0,0,1,12.463274844485658,-58.69128368123167L6.231637422242829,-29.345641840615833A30,30,0,0,0,1.83697019872103e-15,-30Z" style="stroke: white; fill: none;"></path><path title="command-line" d="M12.463274844485658,-58.69128368123167A60,60,0,0,1,31.249005651823044,-51.220109778995315L15.624502825911522,-25.610054889497658A30,30,0,0,0,6.231637422242829,-29.345641840615833Z" style="stroke: white; fill: none;"></path><path title="markdown" d="M31.249005651823044,-51.220109778995315A60,60,0,0,1,36.763321553182244,-47.41790999587946L18.381660776591122,-23.70895499793973A30,30,0,0,0,15.624502825911522,-25.610054889497658Z" style="stroke: white; fill: none;"></path><path title="git-basics" d="M36.763321553182244,-47.41790999587946A60,60,0,0,1,56.89602878692525,-19.048409599685026L28.448014393462625,-9.524204799842513A30,30,0,0,0,18.381660776591122,-23.70895499793973Z" style="stroke: white; fill: none;"></path><path title="r-intro" d="M56.89602878692525,-19.048409599685026A60,60,0,0,1,59.192878027867195,9.808322526203824L29.596439013933598,4.904161263101912A30,30,0,0,0,28.448014393462625,-9.524204799842513Z" style="stroke: white; fill: none;"></path><path title="functions" d="M59.192878027867195,9.808322526203824A60,60,0,0,1,52.68720235302377,28.706422769330324L26.343601176511886,14.353211384665162A30,30,0,0,0,29.596439013933598,4.904161263101912Z" style="stroke: white; fill: none;"></path><path title="vectors" d="M52.68720235302377,28.706422769330324A60,60,0,0,1,35.96376281279008,48.02715652987773L17.98188140639504,24.013578264938864A30,30,0,0,0,26.343601176511886,14.353211384665162Z" style="stroke: white; fill: none;"></path><path title="lists" d="M35.96376281279008,48.02715652987773A60,60,0,0,1,20.87899381351415,56.25004548740595L10.439496906757075,28.125022743702974A30,30,0,0,0,17.98188140639504,24.013578264938864Z" style="stroke: white; fill: none;"></path><path title="dataframes" d="M20.87899381351415,56.25004548740595A60,60,0,0,1,-1.2987124979266094,59.985942902047725L-0.6493562489633047,29.992971451023863A30,30,0,0,0,10.439496906757075,28.125022743702974Z" style="stroke: white; fill: none;"></path><path title="dplyr" d="M-1.2987124979266094,59.985942902047725A60,60,0,0,1,-36.43812998489371,47.66825655720995L-18.219064992446857,23.834128278604975A30,30,0,0,0,-0.6493562489633047,29.992971451023863Z" style="stroke: white; fill: none;"></path><path title="apis" d="M-36.43812998489371,47.66825655720995A60,60,0,0,1,-55.582883286777424,22.59520049763841L-27.791441643388712,11.297600248819204A30,30,0,0,0,-18.219064992446857,23.834128278604975Z" style="stroke: white; fill: none;"></path><path title="r-markdown" d="M-55.582883286777424,22.59520049763841A60,60,0,0,1,-59.009154020183864,10.859085680766077L-29.504577010091932,5.429542840383038A30,30,0,0,0,-27.791441643388712,11.297600248819204Z" style="stroke: white; fill: none;"></path><path title="ggplot2" d="M-59.009154020183864,10.859085680766077A60,60,0,0,1,-56.258064389916875,-20.857377378279526L-28.129032194958437,-10.428688689139763A30,30,0,0,0,-29.504577010091932,5.429542840383038Z" style="stroke: white; fill: none;"></path><path title="git-branches" d="M-56.258064389916875,-20.857377378279526A60,60,0,0,1,-41.2113780630367,-43.60759473010932L-20.60568903151835,-21.80379736505466A30,30,0,0,0,-28.129032194958437,-10.428688689139763Z" style="stroke: white; fill: none;"></path><path title="git-collaboration" d="M-41.2113780630367,-43.60759473010932A60,60,0,0,1,-29.789436101774566,-52.08252582909444L-14.894718050887283,-26.04126291454722A30,30,0,0,0,-20.60568903151835,-21.80379736505466Z" style="stroke: white; fill: none;"></path><path title="shiny" d="M-29.789436101774566,-52.08252582909444A60,60,0,0,1,-1.1021821192326178e-14,-60L-5.510910596163089e-15,-30A30,30,0,0,0,-14.894718050887283,-26.04126291454722Z" style="stroke: white; fill: none;"></path><path title="git" d="M5.5109105961630896e-15,-90A90,90,0,0,1,2.7985312732383436,-89.95647960382124L1.8656875154922292,-59.970986402547496A60,60,0,0,0,3.67394039744206e-15,-60Z" style="stroke: white; fill: none;"></path><path title="command-line-tools-bash" d="M2.7985312732383436,-89.95647960382124A90,90,0,0,1,7.277699712219433,-89.70526788822806L4.851799808146288,-59.80351192548538A60,60,0,0,0,1.8656875154922292,-59.970986402547496Z" style="stroke: white; fill: none;"></path><path title="text-editors" d="M7.277699712219433,-89.70526788822806A90,90,0,0,1,14.471325207384313,-88.8289409299814L9.647550138256209,-59.21929395332093A60,60,0,0,0,4.851799808146288,-59.80351192548538Z" style="stroke: white; fill: none;"></path><path title="r-language" d="M14.471325207384313,-88.8289409299814A90,90,0,0,1,16.954808813790432,-88.388542572484L11.303205875860288,-58.92569504832266A60,60,0,0,0,9.647550138256209,-59.21929395332093Z" style="stroke: white; fill: none;"></path><path title="rstudio" d="M16.954808813790432,-88.388542572484A90,90,0,0,1,18.33616586620467,-88.11234318372784L12.22411057746978,-58.741562122485234A60,60,0,0,0,11.303205875860288,-58.92569504832266Z" style="stroke: white; fill: none;"></path><path title="resources" d="M18.33616586620467,-88.11234318372784A90,90,0,0,1,18.694912266728487,-88.03692552184751L12.463274844485658,-58.69128368123167A60,60,0,0,0,12.22411057746978,-58.741562122485234Z" style="stroke: white; fill: none;"></path><path title="accessing-the-command-line" d="M18.694912266728487,-88.03692552184751A90,90,0,0,1,20.921405493560947,-87.5345348543876L13.947603662373965,-58.35635656959173A60,60,0,0,0,12.463274844485658,-58.69128368123167Z" style="stroke: white; fill: none;"></path><path title="navigating-the-command-line" d="M20.921405493560947,-87.5345348543876A90,90,0,0,1,35.685281638167204,-82.62300330056205L23.790187758778135,-55.082002200374696A60,60,0,0,0,13.947603662373965,-58.35635656959173Z" style="stroke: white; fill: none;"></path><path title="file-commands" d="M35.685281638167204,-82.62300330056205A90,90,0,0,1,42.76171598204099,-79.19239639177022L28.507810654693994,-52.79493092784681A60,60,0,0,0,23.790187758778135,-55.082002200374696Z" style="stroke: white; fill: none;"></path><path title="dealing-with-errors" d="M42.76171598204099,-79.19239639177022A90,90,0,0,1,46.64301807319937,-76.97031158195475L31.095345382132912,-51.313541054636495A60,60,0,0,0,28.507810654693994,-52.79493092784681Z" style="stroke: white; fill: none;"></path><path title="resources-1" d="M46.64301807319937,-76.97031158195475A90,90,0,0,1,46.87350847773457,-76.83016466849297L31.249005651823044,-51.220109778995315A60,60,0,0,0,31.095345382132912,-51.313541054636495Z" style="stroke: white; fill: none;"></path><path title="writing-markdown" d="M46.87350847773457,-76.83016466849297A90,90,0,0,1,51.392161506098375,-73.88400189304245L34.26144100406558,-49.2560012620283A60,60,0,0,0,31.249005651823044,-51.220109778995315Z" style="stroke: white; fill: none;"></path><path title="rendering-markdown" d="M51.392161506098375,-73.88400189304245A90,90,0,0,1,54.968068379633706,-71.26367559010632L36.64537891975581,-47.50911706007087A60,60,0,0,0,34.26144100406558,-49.2560012620283Z" style="stroke: white; fill: none;"></path><path title="resources-2" d="M54.968068379633706,-71.26367559010632A90,90,0,0,1,55.14498232977337,-71.1268649938192L36.76332155318225,-47.41790999587946A60,60,0,0,0,36.64537891975581,-47.50911706007087Z" style="stroke: white; fill: none;"></path><path title="what-is-this-git-thing-anyway" d="M55.14498232977336,-71.1268649938192A90,90,0,0,1,63.57844484681523,-63.700717035685514L42.38562989787682,-42.467144690457005A60,60,0,0,0,36.763321553182244,-47.41790999587946Z" style="stroke: white; fill: none;"></path><path title="installation-setup" d="M63.57844484681523,-63.700717035685514A90,90,0,0,1,69.18791369031108,-57.558948906161106L46.12527579354072,-38.3726326041074A60,60,0,0,0,42.38562989787682,-42.467144690457005Z" style="stroke: white; fill: none;"></path><path title="making-changes" d="M69.18791369031108,-57.558948906161106A90,90,0,0,1,78.05042283479602,-44.81218021151786L52.033615223197344,-29.87478680767858A60,60,0,0,0,46.12527579354072,-38.3726326041074Z" style="stroke: white; fill: none;"></path><path title="github-and-remotes" d="M78.05042283479602,-44.81218021151786A90,90,0,0,1,83.67825404191053,-33.13532556800194L55.785502694607025,-22.090217045334626A60,60,0,0,0,52.033615223197344,-29.87478680767858Z" style="stroke: white; fill: none;"></path><path title="course-assignments-on-github" d="M83.67825404191053,-33.13532556800194A90,90,0,0,1,84.6046200586746,-30.69296767546787L56.4030800391164,-20.461978450311914A60,60,0,0,0,55.785502694607025,-22.090217045334626Z" style="stroke: white; fill: none;"></path><path title="command-summary" d="M84.6046200586746,-30.69296767546787A90,90,0,0,1,85.20024619215759,-28.998587013779414L56.80016412810506,-19.33239134251961A60,60,0,0,0,56.4030800391164,-20.461978450311914Z" style="stroke: white; fill: none;"></path><path title="resources-3" d="M85.20024619215759,-28.998587013779414A90,90,0,0,1,85.34404318038789,-28.57261439952754L56.89602878692525,-19.048409599685026A60,60,0,0,0,56.80016412810506,-19.33239134251961Z" style="stroke: white; fill: none;"></path><path title="programming-with-r" d="M85.34404318038789,-28.57261439952754A90,90,0,0,1,86.74590597463983,-23.982239191513067L57.83060398309322,-15.988159461008712A60,60,0,0,0,56.89602878692525,-19.048409599685026Z" style="stroke: white; fill: none;"></path><path title="running-r-scripts" d="M86.74590597463983,-23.982239191513067A90,90,0,0,1,89.61796311360133,-8.283760460635635L59.745308742400894,-5.52250697375709A60,60,0,0,0,57.83060398309322,-15.988159461008712Z" style="stroke: white; fill: none;"></path><path title="comments" d="M89.61796311360133,-8.283760460635635A90,90,0,0,1,89.86478986537921,-4.9314848120254915L59.909859910252806,-3.287656541350328A60,60,0,0,0,59.745308742400894,-5.52250697375709Z" style="stroke: white; fill: none;"></path><path title="variables" d="M89.86478986537921,-4.9314848120254915A90,90,0,0,1,89.6430048595364,8.008225755629809L59.762003239690934,5.338817170419873A60,60,0,0,0,59.909859910252806,-3.287656541350328Z" style="stroke: white; fill: none;"></path><path title="gettinghelp" d="M89.6430048595364,8.008225755629809A90,90,0,0,1,88.9329360755775,13.817846466698292L59.288624050384996,9.211897644465529A60,60,0,0,0,59.762003239690934,5.338817170419873Z" style="stroke: white; fill: none;"></path><path title="resources-4" d="M88.9329360755775,13.817846466698292A90,90,0,0,1,88.78931704180079,14.712483789305738L59.192878027867195,9.808322526203824A60,60,0,0,0,59.288624050384996,9.211897644465529Z" style="stroke: white; fill: none;"></path><path title="what-are-functions" d="M88.78931704180079,14.712483789305738A90,90,0,0,1,87.16830880736453,22.398346806492984L58.11220587157636,14.932231204328657A60,60,0,0,0,59.192878027867195,9.808322526203824Z" style="stroke: white; fill: none;"></path><path title="built-in-r-functions" d="M87.16830880736453,22.398346806492984A90,90,0,0,1,86.12927196171796,26.110314271268827L57.419514641145305,17.406876180845885A60,60,0,0,0,58.11220587157636,14.932231204328657Z" style="stroke: white; fill: none;"></path><path title="loading-functions" d="M86.12927196171796,26.110314271268827A90,90,0,0,1,84.77780534033121,30.211317774584227L56.51853689355414,20.140878516389485A60,60,0,0,0,57.419514641145305,17.406876180845885Z" style="stroke: white; fill: none;"></path><path title="writing-functions" d="M84.77780534033121,30.211317774584227A90,90,0,0,1,81.11033497020279,39.001455883357714L54.07355664680186,26.00097058890514A60,60,0,0,0,56.51853689355414,20.140878516389485Z" style="stroke: white; fill: none;"></path><path title="conditional-statements" d="M81.11033497020279,39.001455883357714A90,90,0,0,1,79.09469524847896,42.94216090918387L52.72979683231931,28.628107272789247A60,60,0,0,0,54.07355664680186,26.00097058890514Z" style="stroke: white; fill: none;"></path><path title="resources-5" d="M79.09469524847896,42.94216090918387A90,90,0,0,1,79.03080352953566,43.05963415399548L52.68720235302377,28.706422769330324A60,60,0,0,0,52.72979683231931,28.628107272789247Z" style="stroke: white; fill: none;"></path><path title="what-is-a-vector" d="M79.03080352953566,43.05963415399548A90,90,0,0,1,75.37457059133693,49.18001736652363L50.24971372755795,32.78667824434908A60,60,0,0,0,52.68720235302377,28.706422769330324Z" style="stroke: white; fill: none;"></path><path title="vector-indices" d="M75.37457059133693,49.18001736652363A90,90,0,0,1,70.7864786853624,55.58124175768958L47.1909857902416,37.054161171793055A60,60,0,0,0,50.24971372755795,32.78667824434908Z" style="stroke: white; fill: none;"></path><path title="modifying-vectors" d="M70.7864786853624,55.58124175768958A90,90,0,0,1,68.73012287707671,58.104820878322464L45.82008191805114,38.736547252214976A60,60,0,0,0,47.1909857902416,37.054161171793055Z" style="stroke: white; fill: none;"></path><path title="vector-filtering" d="M68.73012287707671,58.104820878322464A90,90,0,0,1,65.0635546016604,62.18306733023674L43.3757030677736,41.455378220157826A60,60,0,0,0,45.82008191805114,38.736547252214976Z" style="stroke: white; fill: none;"></path><path title="vectorized-operations" d="M65.0635546016604,62.18306733023674A90,90,0,0,1,54.00283810574777,71.99787133328593L36.00189207049851,47.99858088885728A60,60,0,0,0,43.3757030677736,41.455378220157826Z" style="stroke: white; fill: none;"></path><path title="resources-6" d="M54.00283810574777,71.99787133328593A90,90,0,0,1,53.94564421918513,72.0407347948166L35.96376281279008,48.02715652987773A60,60,0,0,0,36.00189207049851,47.99858088885728Z" style="stroke: white; fill: none;"></path><path title="what-is-a-list" d="M53.94564421918513,72.0407347948166A90,90,0,0,1,36.96779737503763,82.05718711507336L24.645198250025082,54.704791410048905A60,60,0,0,0,35.96376281279008,48.02715652987773Z" style="stroke: white; fill: none;"></path><path title="the-lapply-function" d="M36.96779737503763,82.05718711507336A90,90,0,0,1,31.538855473507265,84.2929451106154L21.025903649004842,56.19529674041027A60,60,0,0,0,24.645198250025082,54.704791410048905Z" style="stroke: white; fill: none;"></path><path title="resources-7" d="M31.538855473507265,84.2929451106154A90,90,0,0,1,31.318490720271257,84.3750682311089L20.87899381351417,56.250045487405934A60,60,0,0,0,21.025903649004842,56.19529674041027Z" style="stroke: white; fill: none;"></path><path title="what-is-a-data-frame" d="M31.31849072027122,84.37506823110893A90,90,0,0,1,17.506964447208052,88.2808370816917L11.671309631472035,58.85389138779447A60,60,0,0,0,20.87899381351415,56.25004548740595Z" style="stroke: white; fill: none;"></path><path title="csv-files" d="M17.506964447208052,88.2808370816917A90,90,0,0,1,7.594782613559631,89.67897901433074L5.063188409039754,59.785986009553824A60,60,0,0,0,11.671309631472035,58.85389138779447Z" style="stroke: white; fill: none;"></path><path title="factors" d="M7.594782613559631,89.67897901433074A90,90,0,0,1,-1.682980306771641,89.9842629424002L-1.1219868711810939,59.989508628266805A60,60,0,0,0,5.063188409039754,59.785986009553824Z" style="stroke: white; fill: none;"></path><path title="resources-8" d="M-1.682980306771641,89.9842629424002A90,90,0,0,1,-1.948068746889914,89.97891435307159L-1.2987124979266094,59.985942902047725A60,60,0,0,0,-1.1219868711810939,59.989508628266805Z" style="stroke: white; fill: none;"></path><path title="a-grammar-of-data-manipulation" d="M-1.948068746889914,89.97891435307159A90,90,0,0,1,-5.695602104497762,89.81959762027016L-3.7970680696651744,59.87973174684677A60,60,0,0,0,-1.2987124979266094,59.985942902047725Z" style="stroke: white; fill: none;"></path><path title="using-dplyr-functions" d="M-5.695602104497762,89.81959762027016A90,90,0,0,1,-22.228592994045417,87.21175180848665L-14.819061996030278,58.14116787232443A60,60,0,0,0,-3.7970680696651744,59.87973174684677Z" style="stroke: white; fill: none;"></path><path title="multple-operations" d="M-22.228592994045417,87.21175180848665A90,90,0,0,1,-31.99402288036063,84.12123691393845L-21.329348586907088,56.08082460929229A60,60,0,0,0,-14.819061996030278,58.14116787232443Z" style="stroke: white; fill: none;"></path><path title="grouped-operations" d="M-31.99402288036063,84.12123691393845A90,90,0,0,1,-35.860879110228545,82.54694027910165L-23.907252740152366,55.031293519401096A60,60,0,0,0,-21.329348586907088,56.08082460929229Z" style="stroke: white; fill: none;"></path><path title="joins" d="M-35.860879110228545,82.54694027910165A90,90,0,0,1,-50.43396698921984,74.54136417942915L-33.62264465947989,49.694242786286104A60,60,0,0,0,-23.907252740152366,55.031293519401096Z" style="stroke: white; fill: none;"></path><path title="non-standard-evaluation-vs.standard-evaluation" d="M-50.43396698921984,74.54136417942915A90,90,0,0,1,-54.25335028282407,71.80928897495917L-36.16890018854938,47.87285931663945A60,60,0,0,0,-33.62264465947989,49.694242786286104Z" style="stroke: white; fill: none;"></path><path title="resources-9" d="M-54.25335028282407,71.80928897495917A90,90,0,0,1,-54.657194977340566,71.50238483581492L-36.43812998489371,47.66825655720995A60,60,0,0,0,-36.16890018854938,47.87285931663945Z" style="stroke: white; fill: none;"></path><path title="what-is-a-web-api" d="M-54.657194977340566,71.50238483581492A90,90,0,0,1,-57.81378668018235,68.975111958578L-38.5425244534549,45.983407972385336A60,60,0,0,0,-36.43812998489371,47.66825655720995Z" style="stroke: white; fill: none;"></path><path title="restful-requests" d="M-57.81378668018235,68.975111958578A90,90,0,0,1,-71.66449068552946,54.44447423553341L-47.77632712368631,36.296316157022275A60,60,0,0,0,-38.5425244534549,45.983407972385336Z" style="stroke: white; fill: none;"></path><path title="accessing-web-apis" d="M-71.66449068552946,54.44447423553341A90,90,0,0,1,-75.17489336591854,49.48469872013749L-50.11659557727902,32.98979914675832A60,60,0,0,0,-47.77632712368631,36.296316157022275Z" style="stroke: white; fill: none;"></path><path title="json" d="M-75.17489336591854,49.48469872013749A90,90,0,0,1,-83.16965688117655,34.39197834186575L-55.44643792078436,22.927985561243837A60,60,0,0,0,-50.11659557727902,32.98979914675832Z" style="stroke: white; fill: none;"></path><path title="resources-10" d="M-83.16965688117655,34.39197834186575A90,90,0,0,1,-83.37432493016617,33.89280074645754L-55.582883286777445,22.59520049763836A60,60,0,0,0,-55.44643792078436,22.927985561243837Z" style="stroke: white; fill: none;"></path><path title="r-markdown-and-rstudio" d="M-83.37432493016614,33.89280074645761A90,90,0,0,1,-87.0201328528283,22.967291487594135L-58.01342190188553,15.31152765839609A60,60,0,0,0,-55.582883286777424,22.59520049763841Z" style="stroke: white; fill: none;"></path><path title="r-markdown-syntax" d="M-87.0201328528283,22.967291487594135A90,90,0,0,1,-88.46578416648208,16.547055079663227L-58.97718944432139,11.031370053108818A60,60,0,0,0,-58.01342190188553,15.31152765839609Z" style="stroke: white; fill: none;"></path><path title="resources-11" d="M-88.46578416648208,16.547055079663227A90,90,0,0,1,-88.51373103027578,16.288628521149192L-59.00915402018385,10.859085680766128A60,60,0,0,0,-58.97718944432139,11.031370053108818Z" style="stroke: white; fill: none;"></path><path title="a-grammar-of-graphics" d="M-88.51373103027579,16.288628521149114A90,90,0,0,1,-89.11782578927945,12.570327226911749L-59.411883859519634,8.3802181512745A60,60,0,0,0,-59.009154020183864,10.859085680766077Z" style="stroke: white; fill: none;"></path><path title="basic-plotting-with-ggplot2" d="M-89.11782578927945,12.570327226911749A90,90,0,0,1,-89.91843818096908,3.8307277500811168L-59.94562545397939,2.553818500054078A60,60,0,0,0,-59.411883859519634,8.3802181512745Z" style="stroke: white; fill: none;"></path><path title="complex-plots" d="M-89.91843818096908,3.8307277500811168A90,90,0,0,1,-86.45920150944282,-24.99612918732742L-57.63946767296188,-16.664086124884946A60,60,0,0,0,-59.94562545397939,2.553818500054078Z" style="stroke: white; fill: none;"></path><path title="other-visualization-libraries" d="M-86.45920150944282,-24.99612918732742A90,90,0,0,1,-84.67125332671777,-30.508668605542L-56.44750221781185,-20.339112403694667A60,60,0,0,0,-57.63946767296188,-16.664086124884946Z" style="stroke: white; fill: none;"></path><path title="resources-12" d="M-84.67125332671777,-30.508668605542A90,90,0,0,1,-84.38709658487532,-31.28606606741929L-56.258064389916875,-20.857377378279526A60,60,0,0,0,-56.44750221781185,-20.339112403694667Z" style="stroke: white; fill: none;"></path><path title="git-branches" d="M-84.38709658487532,-31.28606606741929A90,90,0,0,1,-80.32111914123213,-40.60194354830804L-53.54741276082142,-27.067962365538698A60,60,0,0,0,-56.258064389916875,-20.857377378279526Z" style="stroke: white; fill: none;"></path><path title="merging" d="M-80.32111914123213,-40.60194354830804A90,90,0,0,1,-75.57927258918248,-48.86484989120554L-50.386181726121656,-32.57656659413703A60,60,0,0,0,-53.54741276082142,-27.067962365538698Z" style="stroke: white; fill: none;"></path><path title="undoing-changes" d="M-75.57927258918248,-48.86484989120554A90,90,0,0,1,-71.24677440228335,-54.98997306118764L-47.49784960152223,-36.65998204079176A60,60,0,0,0,-50.386181726121656,-32.57656659413703Z" style="stroke: white; fill: none;"></path><path title="github-and-branches" d="M-71.24677440228335,-54.98997306118764A90,90,0,0,1,-62.22805535490893,-65.02052850251519L-41.48537023660595,-43.34701900167679A60,60,0,0,0,-47.49784960152223,-36.65998204079176Z" style="stroke: white; fill: none;"></path><path title="resources-13" d="M-62.22805535490893,-65.02052850251519A90,90,0,0,1,-61.8170670945551,-65.41139209516392L-41.21137806303673,-43.607594730109284A60,60,0,0,0,-41.48537023660595,-43.34701900167679Z" style="stroke: white; fill: none;"></path><path title="centralized-workflow" d="M-61.81706709455504,-65.41139209516398A90,90,0,0,1,-58.104820878322414,-68.73012287707675L-38.73654725221494,-45.820081918051166A60,60,0,0,0,-41.2113780630367,-43.60759473010932Z" style="stroke: white; fill: none;"></path><path title="feature-branch-workflow" d="M-58.104820878322414,-68.73012287707675A90,90,0,0,1,-52.35491720235548,-73.20493593149646L-34.90327813490366,-48.80329062099764A60,60,0,0,0,-38.73654725221494,-45.820081918051166Z" style="stroke: white; fill: none;"></path><path title="forking-workflow" d="M-52.35491720235548,-73.20493593149646A90,90,0,0,1,-44.77218499172969,-78.07337222809282L-29.84812332781979,-52.04891481872855A60,60,0,0,0,-34.90327813490366,-48.80329062099764Z" style="stroke: white; fill: none;"></path><path title="resources-14" d="M-44.77218499172969,-78.07337222809282A90,90,0,0,1,-44.684154152661776,-78.12378874364171L-29.78943610177452,-52.08252582909447A60,60,0,0,0,-29.84812332781979,-52.04891481872855Z" style="stroke: white; fill: none;"></path><path title="creating-shiny-apps" d="M-44.68415415266185,-78.12378874364167A90,90,0,0,1,-6.197121131589473,-89.78638922286834L-4.1314140877263155,-59.85759281524555A60,60,0,0,0,-29.789436101774566,-52.08252582909444Z" style="stroke: white; fill: none;"></path><path title="publishing-shiny-apps" d="M-6.197121131589473,-89.78638922286834A90,90,0,0,1,-0.5441151839465673,-89.99835519978461L-0.3627434559643782,-59.998903466523075A60,60,0,0,0,-4.1314140877263155,-59.85759281524555Z" style="stroke: white; fill: none;"></path><path title="resources-15" d="M-0.5441151839465673,-89.99835519978461A90,90,0,0,1,-9.646878956150053e-14,-90L-6.431252637433369e-14,-60A60,60,0,0,0,-0.3627434559643782,-59.998903466523075Z" style="stroke: white; fill: none;"></path><path title="github" d="M7.34788079488412e-15,-120A120,120,0,0,1,2.0165250535445005,-119.98305558164631L1.5123937901583753,-89.98729168623473A90,90,0,0,0,5.5109105961630896e-15,-90Z" style="stroke: white; fill: none;"></path><path title="command-line-on-a-mac" d="M3.7313750309844584,-119.94197280509499A120,120,0,0,1,4.585464128949817,-119.91235765642386L3.4390980967123626,-89.9342682423179A90,90,0,0,0,2.7985312732383436,-89.95647960382124Z" style="stroke: white; fill: none;"></path><path title="command-line-on-windows" d="M4.585464128949817,-119.91235765642386A120,120,0,0,1,7.6156116939645715,-119.7580997616727L5.711708770473429,-89.81857482125451A90,90,0,0,0,3.4390980967123626,-89.9342682423179Z" style="stroke: white; fill: none;"></path><path title="atom" d="M9.703599616292577,-119.60702385097076A120,120,0,0,1,13.625771342507717,-119.22390010111938L10.219328506880787,-89.41792507583953A90,90,0,0,0,7.277699712219433,-89.70526788822806Z" style="stroke: white; fill: none;"></path><path title="visual-studio-code" d="M13.625771342507717,-119.22390010111938A120,120,0,0,1,15.295044894349466,-119.02126533388827L11.4712836707621,-89.2659490004162A90,90,0,0,0,10.219328506880787,-89.41792507583953Z" style="stroke: white; fill: none;"></path><path title="sublime-text" d="M15.295044894349466,-119.02126533388827A120,120,0,0,1,16.39203436573714,-118.87514967120964L12.294025774302854,-89.15636225340722A90,90,0,0,0,11.4712836707621,-89.2659490004162Z" style="stroke: white; fill: none;"></path><path title="changing-directories" d="M27.89520732474793,-116.71271313918346A120,120,0,0,1,31.54053718410183,-115.7808037376589L23.655402888076374,-86.83560280324419A90,90,0,0,0,20.921405493560947,-87.5345348543876Z" style="stroke: white; fill: none;"></path><path title="listing-files" d="M31.54053718410183,-115.7808037376589A120,120,0,0,1,34.90494039702102,-114.81134584996559L26.178705297765767,-86.1085093874742A90,90,0,0,0,23.655402888076374,-86.83560280324419Z" style="stroke: white; fill: none;"></path><path title="paths" d="M34.90494039702102,-114.81134584996559A120,120,0,0,1,43.79717775429284,-111.72200866775927L32.84788331571963,-83.79150650081945A90,90,0,0,0,26.178705297765767,-86.1085093874742Z" style="stroke: white; fill: none;"></path><path title="learning-new-commands" d="M47.58037551755627,-110.16400440074939A120,120,0,0,1,53.479213873225525,-107.42426952742943L40.109410404919146,-80.56820214557207A90,90,0,0,0,35.685281638167204,-82.62300330056205Z" style="stroke: white; fill: none;"></path><path title="text-formatting" d="M62.49801130364609,-102.44021955799063A120,120,0,0,1,64.40528668609062,-101.25195823727302L48.303965014567964,-75.93896867795476A90,90,0,0,0,46.87350847773457,-76.83016466849297Z" style="stroke: white; fill: none;"></path><path title="text-blocks" d="M64.40528668609062,-101.25195823727302A120,120,0,0,1,66.87564208996169,-99.63758575485129L50.15673156747127,-74.72818931613847A90,90,0,0,0,48.303965014567964,-75.93896867795476Z" style="stroke: white; fill: none;"></path><path title="git-core-concepts" d="M73.52664310636449,-94.83581999175892A120,120,0,0,1,77.53176871136101,-91.59052811556455L58.14882653352076,-68.69289608667341A90,90,0,0,0,55.14498232977336,-71.1268649938192Z" style="stroke: white; fill: none;"></path><path title="wait-but-what-is-github-then" d="M77.53176871136101,-91.59052811556455A120,120,0,0,1,80.23260013188602,-89.2341295473704L60.17445009891452,-66.9255971605278A90,90,0,0,0,58.14882653352076,-68.69289608667341Z" style="stroke: white; fill: none;"></path><path title="creating-a-repo" d="M84.77125979575364,-84.93428938091401A120,120,0,0,1,87.98832550824243,-81.59690296975478L65.99124413118182,-61.19767722731608A90,90,0,0,0,63.57844484681523,-63.700717035685514Z" style="stroke: white; fill: none;"></path><path title="checking-status" d="M87.98832550824243,-81.59690296975478A120,120,0,0,1,89.94584259050055,-79.43390586320741L67.45938194287541,-59.575429397405564A90,90,0,0,0,65.99124413118182,-61.19767722731608Z" style="stroke: white; fill: none;"></path><path title="adding-files" d="M92.25055158708145,-76.7452652082148A120,120,0,0,1,94.74910955529339,-73.6383476082877L71.06183216647004,-55.22876070621578A90,90,0,0,0,69.18791369031108,-57.558948906161106Z" style="stroke: white; fill: none;"></path><path title="committing" d="M94.74910955529339,-73.6383476082877A120,120,0,0,1,98.2726715480196,-68.8656810524303L73.7045036610147,-51.64926078932273A90,90,0,0,0,71.06183216647004,-55.22876070621578Z" style="stroke: white; fill: none;"></path><path title="commit-history" d="M98.2726715480196,-68.8656810524303A120,120,0,0,1,99.05826812500261,-67.73078706227392L74.29370109375196,-50.79809029670544A90,90,0,0,0,73.7045036610147,-51.64926078932273Z" style="stroke: white; fill: none;"></path><path title="reviewing-the-process" d="M99.05826812500261,-67.73078706227392A120,120,0,0,1,100.49942745511592,-65.57335648869814L75.37457059133695,-49.18001736652361A90,90,0,0,0,74.29370109375196,-50.79809029670544Z" style="stroke: white; fill: none;"></path><path title="the-.gitignore-file" d="M100.49942745511592,-65.57335648869814A120,120,0,0,1,103.56306481600097,-60.61923462001795L77.67229861200073,-45.46442596501346A90,90,0,0,0,75.37457059133695,-49.18001736652361Z" style="stroke: white; fill: none;"></path><path title="forking-and-cloning" d="M104.06723044639469,-59.74957361535716A120,120,0,0,1,107.90348440249531,-52.505600213695786L80.92761330187147,-39.379200160271836A90,90,0,0,0,78.05042283479602,-44.81218021151786Z" style="stroke: white; fill: none;"></path><path title="pushing-and-pulling" d="M107.90348440249531,-52.505600213695786A120,120,0,0,1,109.9889633900901,-47.983621501231234L82.49172254256757,-35.98771612592342A90,90,0,0,0,80.92761330187147,-39.379200160271836Z" style="stroke: white; fill: none;"></path><path title="reviewing-the-process-1" d="M109.9889633900901,-47.983621501231234A120,120,0,0,1,110.14449280270887,-47.625525773832805L82.60836960203166,-35.719144330374604A90,90,0,0,0,82.49172254256757,-35.98771612592342Z" style="stroke: white; fill: none;"></path><path title="rscript-cmd" d="M115.66120796618644,-31.976318922017423A120,120,0,0,1,118.00772306665635,-21.775612428203797L88.50579229999227,-16.331709321152847A90,90,0,0,0,86.74590597463983,-23.982239191513067Z" style="stroke: white; fill: none;"></path><path title="rstudio-1" d="M118.00772306665635,-21.775612428203797A120,120,0,0,1,119.43574012276014,-11.623423821254397L89.5768050920701,-8.717567865940797A90,90,0,0,0,88.50579229999227,-16.331709321152847Z" style="stroke: white; fill: none;"></path><path title="basic-data-types" d="M119.81971982050561,-6.575313082700656A120,120,0,0,1,119.89896001436824,4.923351244114846L89.92422001077618,3.6925134330861344A90,90,0,0,0,89.86478986537921,-4.9314848120254915Z" style="stroke: white; fill: none;"></path><path title="r-function-syntax" d="M118.38575605573439,19.616645052407648A120,120,0,0,1,117.07933880299187,26.314034761971484L87.8095041022439,19.735526071478613A90,90,0,0,0,88.78931704180079,14.712483789305738Z" style="stroke: white; fill: none;"></path><path title="creating-vectors" d="M105.37440470604754,57.41284553866065A120,120,0,0,1,101.57569992247628,63.893483120417315L76.18177494185721,47.92011234031299A90,90,0,0,0,79.03080352953566,43.05963415399548Z" style="stroke: white; fill: none;"></path><path title="multiple-indicies" d="M100.4994274551159,65.57335648869817A120,120,0,0,1,98.39600577078332,68.68934450375818L73.7970043280875,51.517008377818634A90,90,0,0,0,75.37457059133693,49.18001736652363Z" style="stroke: white; fill: none;"></path><path title="recycling" d="M86.7514061355472,82.91075644031565A120,120,0,0,1,84.41149403933714,85.29184998607398L63.30862052950286,63.968887489555485A90,90,0,0,0,65.0635546016604,62.18306733023674Z" style="stroke: white; fill: none;"></path><path title="everything-is-a-vector" d="M84.41149403933714,85.29184998607398A120,120,0,0,1,81.02718539655109,88.5132488767243L60.77038904741332,66.38493665754324A90,90,0,0,0,63.30862052950286,63.968887489555485Z" style="stroke: white; fill: none;"></path><path title="vectorized-functions" d="M81.02718539655109,88.5132488767243A120,120,0,0,1,75.97931993098827,92.88241460483533L56.9844899482412,69.6618109536265A90,90,0,0,0,60.77038904741332,66.38493665754324Z" style="stroke: white; fill: none;"></path><path title="creating-lists" d="M71.92752562558016,96.05431305975546A120,120,0,0,1,68.41937481828437,98.5839193249848L51.31453111371328,73.93793949373861A90,90,0,0,0,53.94564421918513,72.0407347948166Z" style="stroke: white; fill: none;"></path><path title="accessing-lists" d="M68.41937481828437,98.5839193249848A120,120,0,0,1,62.796911805971405,102.25726315344573L47.097683854478554,76.6929473650843A90,90,0,0,0,51.31453111371328,73.93793949373861Z" style="stroke: white; fill: none;"></path><path title="list-indicies" d="M62.796911805971405,102.25726315344573A120,120,0,0,1,55.688455822816344,106.29579431035938L41.76634186711226,79.72184573276954A90,90,0,0,0,47.097683854478554,76.6929473650843Z" style="stroke: white; fill: none;"></path><path title="modifying-lists" d="M55.688455822816344,106.29579431035938A120,120,0,0,1,53.45719710726074,107.43522735786189L40.09289783044556,80.57642051839642A90,90,0,0,0,41.76634186711226,79.72184573276954Z" style="stroke: white; fill: none;"></path><path title="creating-data-frames" d="M41.7579876270283,112.5000909748119A120,120,0,0,1,37.7176478433947,113.91829985196262L28.288235882546026,85.43872488897196A90,90,0,0,0,31.31849072027122,84.37506823110893Z" style="stroke: white; fill: none;"></path><path title="describing-structure-of-data-frames" d="M37.7176478433947,113.91829985196262A120,120,0,0,1,33.93311041136399,115.10231977597228L25.449832808522995,86.32673983197921A90,90,0,0,0,28.288235882546026,85.43872488897196Z" style="stroke: white; fill: none;"></path><path title="accessing-data-in-data-frames" d="M33.93311041136399,115.10231977597228A120,120,0,0,1,27.850356716751364,116.72342365930544L20.887767537563523,87.54256774447907A90,90,0,0,0,25.449832808522995,86.32673983197921Z" style="stroke: white; fill: none;"></path><path title="working-directory" d="M23.34261926294407,117.70778277558894A120,120,0,0,1,15.337730511013786,119.01577215970795L11.50329788326034,89.26182911978097A90,90,0,0,0,17.506964447208052,88.2808370816917Z" style="stroke: white; fill: none;"></path><path title="select" d="M-7.594136139330349,119.75946349369354A120,120,0,0,1,-9.46458460546281,119.62617455325585L-7.098438454097108,89.71963091494189A90,90,0,0,0,-5.695602104497762,89.81959762027016Z" style="stroke: white; fill: none;"></path><path title="filter" d="M-9.46458460546281,119.62617455325585A120,120,0,0,1,-12.55014157825753,119.34192032293468L-9.412606183693148,89.50644024220101A90,90,0,0,0,-7.098438454097108,89.71963091494189Z" style="stroke: white; fill: none;"></path><path title="mutate" d="M-12.55014157825753,119.34192032293468A120,120,0,0,1,-16.796963312340406,118.81860975236114L-12.597722484255303,89.11395731427086A90,90,0,0,0,-9.412606183693148,89.50644024220101Z" style="stroke: white; fill: none;"></path><path title="arrange" d="M-16.796963312340406,118.81860975236114A120,120,0,0,1,-19.103925914163597,118.46957421492722L-14.327944435622696,88.85218066119542A90,90,0,0,0,-12.597722484255303,89.11395731427086Z" style="stroke: white; fill: none;"></path><path title="summarize" d="M-19.103925914163597,118.46957421492722A120,120,0,0,1,-22.630563864921093,117.8467546398955L-16.972922898690822,88.38506597992162A90,90,0,0,0,-14.327944435622696,88.85218066119542Z" style="stroke: white; fill: none;"></path><path title="distinct" d="M-22.630563864921093,117.8467546398955A120,120,0,0,1,-25.908973328705603,117.16964240387705L-19.4317299965292,87.87723180290779A90,90,0,0,0,-16.972922898690822,88.38506597992162Z" style="stroke: white; fill: none;"></path><path title="the-pipe-operator" d="M-29.638123992060557,116.28233574464886A120,120,0,0,1,-33.85938723625004,115.12402831722693L-25.39454042718753,86.3430212379202A90,90,0,0,0,-22.228592994045417,87.21175180848665Z" style="stroke: white; fill: none;"></path><path title="uris" d="M-77.0850489069098,91.96681594477067A120,120,0,0,1,-92.02800376635359,77.01198947423713L-69.02100282476519,57.75899210567785A90,90,0,0,0,-57.81378668018235,68.975111958578Z" style="stroke: white; fill: none;"></path><path title="http-verbs" d="M-92.02800376635359,77.01198947423713A120,120,0,0,1,-94.9712762456536,73.35159635803268L-71.2284571842402,55.01369726852451A90,90,0,0,0,-69.02100282476519,57.75899210567785Z" style="stroke: white; fill: none;"></path><path title="parsing-json" d="M-100.23319115455804,65.97959829351664A120,120,0,0,1,-103.71028549707744,60.367016508310975L-77.78271412280809,45.27526238123323A90,90,0,0,0,-75.17489336591854,49.48469872013749Z" style="stroke: white; fill: none;"></path><path title="flattening-data" d="M-103.71028549707744,60.367016508310975A120,120,0,0,1,-107.12947441065296,54.06732573835378L-80.34710580798972,40.55049430376533A90,90,0,0,0,-77.78271412280809,45.27526238123323Z" style="stroke: white; fill: none;"></path><path title="creating-.rmd-files" d="M-111.16576657355485,45.19040099527682A120,120,0,0,1,-112.32257927196989,42.23314084569179L-84.24193445397742,31.674855634268845A90,90,0,0,0,-83.37432493016614,33.89280074645761Z" style="stroke: white; fill: none;"></path><path title="rmd-content" d="M-112.32257927196989,42.23314084569179A120,120,0,0,1,-113.94532517435361,37.635925269758125L-85.4589938807652,28.226943952318592A90,90,0,0,0,-84.24193445397742,31.674855634268845Z" style="stroke: white; fill: none;"></path><path title="knitting-documents" d="M-113.94532517435361,37.635925269758125A120,120,0,0,1,-114.8950659878199,34.62836715258906L-86.17129949086494,25.97127536444179A90,90,0,0,0,-85.4589938807652,28.226943952318592Z" style="stroke: white; fill: none;"></path><path title="html" d="M-114.8950659878199,34.62836715258906A120,120,0,0,1,-115.74030907702961,31.68881276970876L-86.80523180777222,23.76660957728157A90,90,0,0,0,-86.17129949086494,25.97127536444179Z" style="stroke: white; fill: none;"></path><path title="r-code-chunks" d="M-116.02684380377106,30.62305531679218A120,120,0,0,1,-117.1610074614894,25.94799280500953L-87.87075559611705,19.460994603757147A90,90,0,0,0,-87.0201328528283,22.967291487594135Z" style="stroke: white; fill: none;"></path><path title="inline-code" d="M-117.1610074614894,25.94799280500953A120,120,0,0,1,-117.79191731490396,22.91427972419882L-88.34393798617796,17.185709793149115A90,90,0,0,0,-87.87075559611705,19.460994603757147Z" style="stroke: white; fill: none;"></path><path title="aesthetic-mappings" d="M-118.82376771903927,16.760436302549A120,120,0,0,1,-119.34897447711641,12.482879926547996L-89.5117308578373,9.362159944910998A90,90,0,0,0,-89.11782578927945,12.570327226911749Z" style="stroke: white; fill: none;"></path><path title="specifying-geometry" d="M-119.89125090795878,5.107637000108156A120,120,0,0,1,-119.44729333094163,-11.504091268413402L-89.58546999820622,-8.628068451310051A90,90,0,0,0,-89.91843818096908,3.8307277500811168Z" style="stroke: white; fill: none;"></path><path title="styling-with-scales" d="M-119.44729333094163,-11.504091268413402A120,120,0,0,1,-118.03385598548128,-21.633511994095283L-88.52539198911096,-16.22513399557146A90,90,0,0,0,-89.58546999820622,-8.628068451310051Z" style="stroke: white; fill: none;"></path><path title="coordinate-systems" d="M-118.03385598548128,-21.633511994095283A120,120,0,0,1,-117.5441318889122,-24.153199756595615L-88.15809891668415,-18.114899817446712A90,90,0,0,0,-88.52539198911096,-16.22513399557146Z" style="stroke: white; fill: none;"></path><path title="facets" d="M-117.5441318889122,-24.153199756595615A120,120,0,0,1,-116.65385772229915,-28.14031766888191L-87.49039329172436,-21.10523825166143A90,90,0,0,0,-88.15809891668415,-18.114899817446712Z" style="stroke: white; fill: none;"></path><path title="labels-annotations" d="M-116.65385772229915,-28.14031766888191A120,120,0,0,1,-115.44901791398816,-32.7341452110123L-86.58676343549112,-24.550608908259225A90,90,0,0,0,-87.49039329172436,-21.10523825166143Z" style="stroke: white; fill: none;"></path><path title="merge-conflicts" d="M-107.09482552164285,-54.135924731077395A120,120,0,0,1,-103.01065662066154,-61.55326654678985L-77.25799246549616,-46.16494991009239A90,90,0,0,0,-80.32111914123213,-40.60194354830804Z" style="stroke: white; fill: none;"></path><path title="github-pages" d="M-94.99569920304447,-73.31996408158352A120,120,0,0,1,-88.24916386774011,-81.31472853453273L-66.18687290080508,-60.98604640089955A90,90,0,0,0,-71.24677440228335,-54.98997306118764Z" style="stroke: white; fill: none;"></path><path title="pull-requests" d="M-69.80655626980732,-97.60658124199529A120,120,0,0,1,-61.94864448828335,-102.77336934276448L-46.46148336621251,-77.08002700707335A90,90,0,0,0,-52.35491720235548,-73.20493593149646Z" style="stroke: white; fill: none;"></path><path title="application-structure" d="M-59.57887220354913,-104.16505165818889A120,120,0,0,1,-46.346979803537344,-110.68856066952222L-34.76023485265301,-83.01642050214167A90,90,0,0,0,-44.68415415266185,-78.12378874364167Z" style="stroke: white; fill: none;"></path><path title="the-ui" d="M-46.346979803537344,-110.68856066952222A120,120,0,0,1,-28.229961216828954,-116.63219662553017L-21.172470912621716,-87.47414746914764A90,90,0,0,0,-34.76023485265301,-83.01642050214167Z" style="stroke: white; fill: none;"></path><path title="the-server" d="M-28.229961216828954,-116.63219662553017A120,120,0,0,1,-10.852152448534266,-119.50828752531672L-8.139114336400699,-89.63121564398753A90,90,0,0,0,-21.172470912621716,-87.47414746914764Z" style="stroke: white; fill: none;"></path></g></svg>